<svg width="204" height="48" viewBox="0 0 204 48" fill="none" xmlns="http://www.w3.org/2000/svg">
<path d="M24 48C37.2548 48 48 37.2548 48 24C48 10.7452 37.2548 0 24 0C10.7452 0 0 10.7452 0 24C0 37.2548 10.7452 48 24 48Z" fill="#E50000"/>
<path d="M32.6 22.3519C32.8681 22.5356 33.0874 22.7818 33.239 23.0693C33.3905 23.3568 33.4697 23.6769 33.4697 24.0019C33.4697 24.3269 33.3905 24.647 33.239 24.9345C33.0874 25.222 32.8681 25.4683 32.6 25.6519L22.13 32.8519C21.8294 33.0577 21.4784 33.1776 21.1147 33.1985C20.7511 33.2193 20.3886 33.1405 20.0665 32.9705C19.7443 32.8005 19.4747 32.5457 19.2868 32.2337C19.0988 31.9216 18.9997 31.5642 19 31.1999V16.7999C19 16.4355 19.0996 16.078 19.288 15.7661C19.4764 15.4542 19.7464 15.1996 20.0689 15.03C20.3914 14.8603 20.7542 14.782 21.1179 14.8035C21.4817 14.825 21.8327 14.9455 22.133 15.1519L32.6 22.3519Z" fill="white"/>
<path d="M69.3219 24.364C66.5832 24.364 64.3212 23.454 62.5359 21.634C60.7506 19.814 59.8579 17.5694 59.8579 14.9C59.8579 12.2134 60.7506 9.9687 62.5359 8.16604C64.3212 6.34604 66.5832 5.43604 69.3219 5.43604C70.9686 5.43604 72.4852 5.82603 73.8719 6.60604C75.2759 7.3687 76.3679 8.4087 77.1479 9.72604L74.0539 11.52C73.6032 10.7054 72.9619 10.0727 72.1299 9.62204C71.2979 9.15403 70.3619 8.92004 69.3219 8.92004C67.5539 8.92004 66.1239 9.4747 65.0319 10.584C63.9572 11.6934 63.4199 13.132 63.4199 14.9C63.4199 16.6507 63.9572 18.0807 65.0319 19.19C66.1239 20.2994 67.5539 20.854 69.3219 20.854C70.3619 20.854 71.2979 20.6287 72.1299 20.178C72.9792 19.71 73.6206 19.0774 74.0539 18.28L77.1479 20.074C76.3679 21.3914 75.2846 22.44 73.8979 23.22C72.5112 23.9827 70.9859 24.364 69.3219 24.364Z" fill="white"/>
<path d="M82.7531 13.236C83.0651 12.404 83.5765 11.78 84.2871 11.364C85.0151 10.948 85.8211 10.74 86.7051 10.74V14.484C85.6825 14.3627 84.7638 14.5707 83.9491 15.108C83.1518 15.6454 82.7531 16.538 82.7531 17.786V24H79.3991V11H82.7531V13.236Z" fill="white"/>
<path d="M91.0183 18.878C91.469 20.5074 92.691 21.322 94.6843 21.322C95.967 21.322 96.9376 20.8887 97.5963 20.022L100.3 21.582C99.0176 23.4367 97.1283 24.364 94.6323 24.364C92.483 24.364 90.7583 23.714 89.4583 22.414C88.1583 21.114 87.5083 19.476 87.5083 17.5C87.5083 15.5414 88.1496 13.912 89.4323 12.612C90.715 11.2947 92.3616 10.636 94.3723 10.636C96.279 10.636 97.8476 11.2947 99.0783 12.612C100.326 13.9294 100.95 15.5587 100.95 17.5C100.95 17.9334 100.907 18.3927 100.82 18.878H91.0183ZM90.9663 16.278H97.5963C97.4056 15.394 97.007 14.7354 96.4003 14.302C95.811 13.8687 95.135 13.652 94.3723 13.652C93.471 13.652 92.7256 13.886 92.1363 14.354C91.547 14.8047 91.157 15.446 90.9663 16.278Z" fill="white"/>
<path d="M113.07 11H116.424V24H113.07V22.466C112.065 23.7314 110.652 24.364 108.832 24.364C107.099 24.364 105.608 23.7054 104.36 22.388C103.129 21.0534 102.514 19.424 102.514 17.5C102.514 15.576 103.129 13.9554 104.36 12.638C105.608 11.3034 107.099 10.636 108.832 10.636C110.652 10.636 112.065 11.2687 113.07 12.534V11ZM106.882 20.152C107.558 20.828 108.416 21.166 109.456 21.166C110.496 21.166 111.354 20.828 112.03 20.152C112.723 19.4587 113.07 18.5747 113.07 17.5C113.07 16.4254 112.723 15.55 112.03 14.874C111.354 14.1807 110.496 13.834 109.456 13.834C108.416 13.834 107.558 14.1807 106.882 14.874C106.206 15.55 105.868 16.4254 105.868 17.5C105.868 18.5747 106.206 19.4587 106.882 20.152Z" fill="white"/>
<path d="M126.902 14.224H123.964V19.632C123.964 20.0827 124.076 20.412 124.302 20.62C124.527 20.828 124.856 20.9494 125.29 20.984C125.723 21.0014 126.26 20.9927 126.902 20.958V24C124.596 24.26 122.967 24.0434 122.014 23.35C121.078 22.6567 120.61 21.4174 120.61 19.632V14.224H118.348V11H120.61V8.37404L123.964 7.36003V11H126.902V14.224Z" fill="white"/>
<path d="M131.694 18.878C132.145 20.5074 133.367 21.322 135.36 21.322C136.643 21.322 137.613 20.8887 138.272 20.022L140.976 21.582C139.693 23.4367 137.804 24.364 135.308 24.364C133.159 24.364 131.434 23.714 130.134 22.414C128.834 21.114 128.184 19.476 128.184 17.5C128.184 15.5414 128.825 13.912 130.108 12.612C131.391 11.2947 133.037 10.636 135.048 10.636C136.955 10.636 138.523 11.2947 139.754 12.612C141.002 13.9294 141.626 15.5587 141.626 17.5C141.626 17.9334 141.583 18.3927 141.496 18.878H131.694ZM131.642 16.278H138.272C138.081 15.394 137.683 14.7354 137.076 14.302C136.487 13.8687 135.811 13.652 135.048 13.652C134.147 13.652 133.401 13.886 132.812 14.354C132.223 14.8047 131.833 15.446 131.642 16.278Z" fill="white"/>
<path d="M148.622 24L142.512 5.80003H146.411L150.858 19.788L155.278 5.80003H159.204L153.068 24H148.622Z" fill="white"/>
<path d="M160.957 5.80003H164.545V24H160.957V5.80003Z" fill="white"/>
<path d="M175.143 5.80003C177.639 5.80003 179.719 6.67537 181.383 8.42604C183.064 10.1767 183.905 12.3347 183.905 14.9C183.905 17.4654 183.064 19.6234 181.383 21.374C179.719 23.1247 177.639 24 175.143 24H167.915V5.80003H175.143ZM175.143 20.568C176.72 20.568 178.003 20.048 178.991 19.008C179.979 17.9507 180.473 16.5814 180.473 14.9C180.473 13.2187 179.979 11.858 178.991 10.818C178.003 9.7607 176.72 9.23204 175.143 9.23204H171.503V20.568H175.143Z" fill="white"/>
<g opacity="0.7">
<path d="M66.328 33H66.964L64.432 39H63.7L61.156 33H61.804L64.06 38.376L66.328 33Z" fill="white"/>
<path d="M68.6889 31.416C68.5929 31.504 68.4809 31.548 68.3529 31.548C68.2249 31.548 68.1129 31.504 68.0169 31.416C67.9209 31.32 67.8729 31.204 67.8729 31.068C67.8729 30.94 67.9209 30.832 68.0169 30.744C68.1129 30.648 68.2249 30.6 68.3529 30.6C68.4809 30.6 68.5929 30.648 68.6889 30.744C68.7849 30.832 68.8329 30.94 68.8329 31.068C68.8329 31.204 68.7849 31.32 68.6889 31.416ZM68.0529 39V33H68.6529V39H68.0529Z" fill="white"/>
<path d="M75.7941 30.6H76.3941V39H75.7941V37.608C75.5461 38.08 75.1941 38.452 74.7381 38.724C74.2901 38.996 73.7821 39.132 73.2141 39.132C72.3501 39.132 71.6141 38.832 71.0061 38.232C70.4061 37.624 70.1061 36.88 70.1061 36C70.1061 35.12 70.4061 34.38 71.0061 33.78C71.6141 33.172 72.3501 32.868 73.2141 32.868C73.7821 32.868 74.2901 33.004 74.7381 33.276C75.1941 33.548 75.5461 33.92 75.7941 34.392V30.6ZM71.4381 37.812C71.9341 38.308 72.5381 38.556 73.2501 38.556C73.9621 38.556 74.5621 38.308 75.0501 37.812C75.5461 37.316 75.7941 36.712 75.7941 36C75.7941 35.288 75.5461 34.684 75.0501 34.188C74.5621 33.692 73.9621 33.444 73.2501 33.444C72.5381 33.444 71.9341 33.692 71.4381 34.188C70.9501 34.684 70.7061 35.288 70.7061 36C70.7061 36.712 70.9501 37.316 71.4381 37.812Z" fill="white"/>
<path d="M80.9365 32.868C81.8165 32.868 82.5285 33.18 83.0725 33.804C83.6245 34.428 83.9005 35.168 83.9005 36.024C83.9005 36.056 83.8965 36.104 83.8885 36.168C83.8885 36.232 83.8885 36.28 83.8885 36.312H78.4525C78.5245 36.984 78.7925 37.528 79.2565 37.944C79.7285 38.352 80.3085 38.556 80.9965 38.556C81.4765 38.556 81.8965 38.456 82.2565 38.256C82.6165 38.056 82.8885 37.792 83.0725 37.464L83.6005 37.776C83.3525 38.192 83.0005 38.524 82.5445 38.772C82.0885 39.012 81.5685 39.132 80.9845 39.132C80.0645 39.132 79.3085 38.84 78.7165 38.256C78.1245 37.664 77.8285 36.912 77.8285 36C77.8285 35.104 78.1165 34.36 78.6925 33.768C79.2765 33.168 80.0245 32.868 80.9365 32.868ZM80.9365 33.444C80.2565 33.444 79.6885 33.656 79.2325 34.08C78.7765 34.504 78.5165 35.052 78.4525 35.724H83.2765C83.2125 35.012 82.9565 34.456 82.5085 34.056C82.0685 33.648 81.5445 33.444 80.9365 33.444Z" fill="white"/>
<path d="M88.0509 39.132C87.1709 39.132 86.4229 38.832 85.8069 38.232C85.1989 37.624 84.8949 36.88 84.8949 36C84.8949 35.12 85.1989 34.38 85.8069 33.78C86.4229 33.172 87.1709 32.868 88.0509 32.868C88.9229 32.868 89.6629 33.172 90.2709 33.78C90.8869 34.38 91.1949 35.12 91.1949 36C91.1949 36.88 90.8869 37.624 90.2709 38.232C89.6629 38.832 88.9229 39.132 88.0509 39.132ZM86.2389 37.812C86.7349 38.308 87.3389 38.556 88.0509 38.556C88.7629 38.556 89.3629 38.308 89.8509 37.812C90.3389 37.316 90.5829 36.712 90.5829 36C90.5829 35.288 90.3389 34.684 89.8509 34.188C89.3629 33.692 88.7629 33.444 88.0509 33.444C87.3389 33.444 86.7349 33.692 86.2389 34.188C85.7509 34.684 85.5069 35.288 85.5069 36C85.5069 36.712 85.7509 37.316 86.2389 37.812Z" fill="white"/>
<path d="M92.9297 34.572C92.9297 34.868 93.0537 35.1 93.3017 35.268C93.5497 35.436 93.8537 35.564 94.2137 35.652C94.5737 35.732 94.9297 35.824 95.2817 35.928C95.6417 36.032 95.9457 36.208 96.1937 36.456C96.4417 36.696 96.5657 37.02 96.5657 37.428C96.5657 37.924 96.3657 38.332 95.9657 38.652C95.5737 38.972 95.0577 39.132 94.4177 39.132C93.8417 39.132 93.3537 39.012 92.9537 38.772C92.5617 38.524 92.2897 38.2 92.1377 37.8L92.6537 37.5C92.7657 37.828 92.9737 38.088 93.2777 38.28C93.5897 38.464 93.9697 38.556 94.4177 38.556C94.8657 38.556 95.2337 38.46 95.5217 38.268C95.8177 38.068 95.9657 37.788 95.9657 37.428C95.9657 37.132 95.8417 36.896 95.5937 36.72C95.3457 36.544 95.0417 36.416 94.6817 36.336C94.3217 36.248 93.9617 36.152 93.6017 36.048C93.2497 35.944 92.9497 35.772 92.7017 35.532C92.4537 35.292 92.3297 34.972 92.3297 34.572C92.3297 34.092 92.5177 33.688 92.8937 33.36C93.2777 33.032 93.7697 32.868 94.3697 32.868C94.8497 32.868 95.2657 32.976 95.6177 33.192C95.9777 33.408 96.2417 33.7 96.4097 34.068L95.9057 34.356C95.7857 34.06 95.5857 33.836 95.3057 33.684C95.0257 33.524 94.7137 33.444 94.3697 33.444C93.9617 33.444 93.6177 33.548 93.3377 33.756C93.0657 33.956 92.9297 34.228 92.9297 34.572Z" fill="white"/>
<path d="M106.497 33H107.109V39H106.497V37.644C106.241 38.108 105.889 38.472 105.441 38.736C104.993 39 104.485 39.132 103.917 39.132C103.061 39.132 102.329 38.832 101.721 38.232C101.113 37.624 100.809 36.88 100.809 36C100.809 35.12 101.113 34.38 101.721 33.78C102.329 33.172 103.061 32.868 103.917 32.868C104.485 32.868 104.993 33 105.441 33.264C105.889 33.528 106.241 33.892 106.497 34.356V33ZM102.153 37.812C102.649 38.308 103.253 38.556 103.965 38.556C104.677 38.556 105.277 38.308 105.765 37.812C106.253 37.316 106.497 36.712 106.497 36C106.497 35.288 106.253 34.684 105.765 34.188C105.277 33.692 104.677 33.444 103.965 33.444C103.253 33.444 102.649 33.692 102.153 34.188C101.665 34.684 101.421 35.288 101.421 36C101.421 36.712 101.665 37.316 102.153 37.812Z" fill="white"/>
<path d="M111.699 32.868C112.411 32.868 112.975 33.088 113.391 33.528C113.815 33.96 114.027 34.54 114.027 35.268V39H113.415V35.268C113.415 34.708 113.259 34.264 112.947 33.936C112.643 33.608 112.211 33.444 111.651 33.444C111.035 33.444 110.531 33.648 110.139 34.056C109.747 34.464 109.551 35.056 109.551 35.832V39H108.951V33H109.551V34.14C109.983 33.292 110.699 32.868 111.699 32.868Z" fill="white"/>
<path d="M121.017 30.6H121.617V39H121.017V37.608C120.769 38.08 120.417 38.452 119.961 38.724C119.513 38.996 119.005 39.132 118.437 39.132C117.573 39.132 116.837 38.832 116.229 38.232C115.629 37.624 115.329 36.88 115.329 36C115.329 35.12 115.629 34.38 116.229 33.78C116.837 33.172 117.573 32.868 118.437 32.868C119.005 32.868 119.513 33.004 119.961 33.276C120.417 33.548 120.769 33.92 121.017 34.392V30.6ZM116.661 37.812C117.157 38.308 117.761 38.556 118.473 38.556C119.185 38.556 119.785 38.308 120.273 37.812C120.769 37.316 121.017 36.712 121.017 36C121.017 35.288 120.769 34.684 120.273 34.188C119.785 33.692 119.185 33.444 118.473 33.444C117.761 33.444 117.157 33.692 116.661 34.188C116.173 34.684 115.929 35.288 115.929 36C115.929 36.712 116.173 37.316 116.661 37.812Z" fill="white"/>
<path d="M129.358 32.868C130.238 32.868 130.95 33.18 131.494 33.804C132.046 34.428 132.322 35.168 132.322 36.024C132.322 36.056 132.318 36.104 132.31 36.168C132.31 36.232 132.31 36.28 132.31 36.312H126.874C126.946 36.984 127.214 37.528 127.678 37.944C128.15 38.352 128.73 38.556 129.418 38.556C129.898 38.556 130.318 38.456 130.678 38.256C131.038 38.056 131.31 37.792 131.494 37.464L132.022 37.776C131.774 38.192 131.422 38.524 130.966 38.772C130.51 39.012 129.99 39.132 129.406 39.132C128.486 39.132 127.73 38.84 127.138 38.256C126.546 37.664 126.25 36.912 126.25 36C126.25 35.104 126.538 34.36 127.114 33.768C127.698 33.168 128.446 32.868 129.358 32.868ZM129.358 33.444C128.678 33.444 128.11 33.656 127.654 34.08C127.198 34.504 126.938 35.052 126.874 35.724H131.698C131.634 35.012 131.378 34.456 130.93 34.056C130.49 33.648 129.966 33.444 129.358 33.444Z" fill="white"/>
<path d="M136.473 32.868C137.185 32.868 137.749 33.088 138.165 33.528C138.589 33.96 138.801 34.54 138.801 35.268V39H138.189V35.268C138.189 34.708 138.033 34.264 137.721 33.936C137.417 33.608 136.985 33.444 136.425 33.444C135.809 33.444 135.305 33.648 134.913 34.056C134.521 34.464 134.325 35.056 134.325 35.832V39H133.725V33H134.325V34.14C134.757 33.292 135.473 32.868 136.473 32.868Z" fill="white"/>
<path d="M143.57 33.588H141.782V37.488C141.782 37.832 141.846 38.08 141.974 38.232C142.102 38.384 142.298 38.472 142.562 38.496C142.826 38.512 143.162 38.5 143.57 38.46V39C142.762 39.12 142.158 39.064 141.758 38.832C141.366 38.6 141.17 38.152 141.17 37.488V33.588H139.85V33H141.17V31.5L141.782 31.32V33H143.57V33.588Z" fill="white"/>
<path d="M147.347 32.868C148.227 32.868 148.939 33.18 149.483 33.804C150.035 34.428 150.311 35.168 150.311 36.024C150.311 36.056 150.307 36.104 150.299 36.168C150.299 36.232 150.299 36.28 150.299 36.312H144.863C144.935 36.984 145.203 37.528 145.667 37.944C146.139 38.352 146.719 38.556 147.407 38.556C147.887 38.556 148.307 38.456 148.667 38.256C149.027 38.056 149.299 37.792 149.483 37.464L150.011 37.776C149.763 38.192 149.411 38.524 148.955 38.772C148.499 39.012 147.979 39.132 147.395 39.132C146.475 39.132 145.719 38.84 145.127 38.256C144.535 37.664 144.239 36.912 144.239 36C144.239 35.104 144.527 34.36 145.103 33.768C145.687 33.168 146.435 32.868 147.347 32.868ZM147.347 33.444C146.667 33.444 146.099 33.656 145.643 34.08C145.187 34.504 144.927 35.052 144.863 35.724H149.687C149.623 35.012 149.367 34.456 148.919 34.056C148.479 33.648 147.955 33.444 147.347 33.444Z" fill="white"/>
<path d="M152.313 34.176C152.673 33.336 153.341 32.916 154.317 32.916V33.492C153.749 33.492 153.273 33.676 152.889 34.044C152.505 34.404 152.313 34.944 152.313 35.664V39H151.713V33H152.313V34.176Z" fill="white"/>
<path d="M158.687 33.588H156.899V37.488C156.899 37.832 156.963 38.08 157.091 38.232C157.219 38.384 157.415 38.472 157.679 38.496C157.943 38.512 158.279 38.5 158.687 38.46V39C157.879 39.12 157.275 39.064 156.875 38.832C156.483 38.6 156.287 38.152 156.287 37.488V33.588H154.967V33H156.287V31.5L156.899 31.32V33H158.687V33.588Z" fill="white"/>
<path d="M165.044 33H165.656V39H165.044V37.644C164.788 38.108 164.436 38.472 163.988 38.736C163.54 39 163.032 39.132 162.464 39.132C161.608 39.132 160.876 38.832 160.268 38.232C159.66 37.624 159.356 36.88 159.356 36C159.356 35.12 159.66 34.38 160.268 33.78C160.876 33.172 161.608 32.868 162.464 32.868C163.032 32.868 163.54 33 163.988 33.264C164.436 33.528 164.788 33.892 165.044 34.356V33ZM160.7 37.812C161.196 38.308 161.8 38.556 162.512 38.556C163.224 38.556 163.824 38.308 164.312 37.812C164.8 37.316 165.044 36.712 165.044 36C165.044 35.288 164.8 34.684 164.312 34.188C163.824 33.692 163.224 33.444 162.512 33.444C161.8 33.444 161.196 33.692 160.7 34.188C160.212 34.684 159.968 35.288 159.968 36C159.968 36.712 160.212 37.316 160.7 37.812Z" fill="white"/>
<path d="M168.134 31.416C168.038 31.504 167.926 31.548 167.798 31.548C167.67 31.548 167.558 31.504 167.462 31.416C167.366 31.32 167.318 31.204 167.318 31.068C167.318 30.94 167.366 30.832 167.462 30.744C167.558 30.648 167.67 30.6 167.798 30.6C167.926 30.6 168.038 30.648 168.134 30.744C168.23 30.832 168.278 30.94 168.278 31.068C168.278 31.204 168.23 31.32 168.134 31.416ZM167.498 39V33H168.098V39H167.498Z" fill="white"/>
<path d="M172.695 32.868C173.407 32.868 173.971 33.088 174.387 33.528C174.811 33.96 175.023 34.54 175.023 35.268V39H174.411V35.268C174.411 34.708 174.255 34.264 173.943 33.936C173.639 33.608 173.207 33.444 172.647 33.444C172.031 33.444 171.527 33.648 171.135 34.056C170.743 34.464 170.547 35.056 170.547 35.832V39H169.947V33H170.547V34.14C170.979 33.292 171.695 32.868 172.695 32.868Z" fill="white"/>
<path d="M183.129 32.868C183.785 32.868 184.313 33.072 184.713 33.48C185.113 33.888 185.313 34.46 185.313 35.196V39H184.713V35.196C184.713 34.636 184.565 34.204 184.269 33.9C183.981 33.596 183.597 33.444 183.117 33.444C182.581 33.444 182.145 33.628 181.809 33.996C181.481 34.364 181.317 34.916 181.317 35.652V39H180.717V35.196C180.717 34.636 180.577 34.204 180.297 33.9C180.025 33.596 179.653 33.444 179.181 33.444C178.653 33.444 178.209 33.632 177.849 34.008C177.497 34.376 177.321 34.924 177.321 35.652V39H176.721V33H177.321V34.032C177.737 33.256 178.381 32.868 179.253 32.868C179.693 32.868 180.077 32.976 180.405 33.192C180.733 33.4 180.973 33.7 181.125 34.092C181.333 33.684 181.613 33.38 181.965 33.18C182.325 32.972 182.713 32.868 183.129 32.868Z" fill="white"/>
<path d="M189.71 32.868C190.59 32.868 191.302 33.18 191.846 33.804C192.398 34.428 192.674 35.168 192.674 36.024C192.674 36.056 192.67 36.104 192.662 36.168C192.662 36.232 192.662 36.28 192.662 36.312H187.226C187.298 36.984 187.566 37.528 188.03 37.944C188.502 38.352 189.082 38.556 189.77 38.556C190.25 38.556 190.67 38.456 191.03 38.256C191.39 38.056 191.662 37.792 191.846 37.464L192.374 37.776C192.126 38.192 191.774 38.524 191.318 38.772C190.862 39.012 190.342 39.132 189.758 39.132C188.838 39.132 188.082 38.84 187.49 38.256C186.898 37.664 186.602 36.912 186.602 36C186.602 35.104 186.89 34.36 187.466 33.768C188.05 33.168 188.798 32.868 189.71 32.868ZM189.71 33.444C189.03 33.444 188.462 33.656 188.006 34.08C187.55 34.504 187.29 35.052 187.226 35.724H192.05C191.986 35.012 191.73 34.456 191.282 34.056C190.842 33.648 190.318 33.444 189.71 33.444Z" fill="white"/>
<path d="M196.824 32.868C197.536 32.868 198.1 33.088 198.516 33.528C198.94 33.96 199.152 34.54 199.152 35.268V39H198.54V35.268C198.54 34.708 198.384 34.264 198.072 33.936C197.768 33.608 197.336 33.444 196.776 33.444C196.16 33.444 195.656 33.648 195.264 34.056C194.872 34.464 194.676 35.056 194.676 35.832V39H194.076V33H194.676V34.14C195.108 33.292 195.824 32.868 196.824 32.868Z" fill="white"/>
<path d="M203.922 33.588H202.134V37.488C202.134 37.832 202.198 38.08 202.326 38.232C202.454 38.384 202.65 38.472 202.914 38.496C203.178 38.512 203.514 38.5 203.922 38.46V39C203.114 39.12 202.51 39.064 202.11 38.832C201.718 38.6 201.522 38.152 201.522 37.488V33.588H200.202V33H201.522V31.5L202.134 31.32V33H203.922V33.588Z" fill="white"/>
</g>
</svg>
